<svg viewBox="0 0 200 200" xmlns="http://www.w3.org/2000/svg"><g><path d="M148.55995168447907 82.76574100272865 C148.55995168447907 82.76574100272865, 148.55995168447907 82.76574100272865, 148.55995168447907 82.76574100272865 M148.55995168447907 82.76574100272865 C148.55995168447907 82.76574100272865, 148.55995168447907 82.76574100272865, 148.55995168447907 82.76574100272865 M144.46610593427383 92.53861909398935 C146.6809530256244 91.16488566206506, 151.6507303532656 85.08732753432045, 158.51070562621095 78.17411558457836 M143.7819494850769 93.45340912328612 C149.48547040240894 88.41136588835835, 153.06931980152268 83.29273336108129, 157.14796086246295 79.26238042085076 M141.0515064554003 101.3252546767902 C148.07168880199367 93.8501892976156, 153.4221648229357 87.23791341117617, 161.94773911831658 77.51984564993975 M142.9141882299112 102.12549688211537 C149.50784688148175 95.12640843964053, 155.35094220534145 87.11936189537602, 163.04395646022806 77.22334388166865 M144.38003022718968 105.20049714324122 C152.92720642782473 96.41179924059156, 159.63083407839773 90.59298893599562, 166.97934182160765 78.64839711606281 M145.2763911441744 104.76842962313826 C151.61480538662735 98.75699349038378, 157.6489820513097 89.89488309399482, 167.75215733026508 78.79318140632058 M147.09616831012985 108.99887316835864 C153.92934416490132 99.07764702587268, 162.0228941216394 93.62483629819869, 173.59883523574356 80.34722481489966 M145.88019982611047 109.10781047025006 C151.9269512115951 103.30797073104281, 157.37575262377058 96.71090781474997, 172.7981428665001 80.08325770776153 M146.41834515409548 115.81133478299249 C157.8149520078467 100.35091282705966, 166.78906008139032 88.31620553497606, 176.43999025425816 79.66773487834675 M147.2779577152021 114.70268027002156 C155.85290104395057 106.390279180787, 163.07869060928547 97.82929853094433, 177.29304808144525 80.32183907134525 M149.36275158244283 116.72978834857368 C160.79552325562665 106.58638152359973, 166.506818066645 95.65725851363045, 181.64058355399538 82.08089739113424 M150.88959305556068 117.44031578163913 C158.50313770672676 108.75369791218439, 166.40209052552981 99.32316599410616, 179.52638872505426 82.83083890753008 M155.17723237613015 121.49893196023297 C160.4766928722514 112.65288931164314, 166.29049471737167 105.73098257809416, 181.6544664492432 87.18854394298785 M152.95548922093002 120.41025659035624 C163.7120146467468 108.13802024297462, 174.98405186688692 95.11281763303363, 182.443695471006 86.87903937126937 M156.38664341287657 121.88924915378023 C167.2193185682373 109.47921283981394, 176.67112374559034 97.54010822565185, 185.59651083738868 90.56011062620875 M157.16616656411705 122.66754465687553 C164.69527822340473 112.99818857376887, 173.09070077339186 104.09992785664659, 186.10824414977782 88.81000458030536 M158.89039146756244 126.36058689558882 C166.75237419723123 116.01975384877757, 176.12823992775554 107.2033602100219, 187.01888091224697 93.15452396523678 M159.00498717752518 123.57988314458545 C168.290949298811 114.0808405311458, 177.4715648452889 105.54187548368402, 187.4935850169164 92.63496114817913 M165.15174401782375 125.55197484188412 C174.15623744354596 114.59108745168683, 177.96662320843126 109.67740574956963, 190.14164710192287 98.9073680519912 M165.14935102941905 124.51324989093841 C171.66487866238185 117.18666205598191, 180.15746785298737 108.25175227228506, 188.29146882507771 97.92229721268723 M173.20561218800032 124.1042390814026 C179.20260120961987 116.33535912979214, 186.1553805098787 110.74375009846895, 187.51178433915052 104.56337013551101 M172.79733979803603 122.97825631548315 C177.26136576855953 116.80350379084578, 182.11760350509144 111.65068921923158, 189.22466991977257 104.1865546884951" stroke="#18a315" stroke-width="0.5" fill="none"/><path d="M162.43809931510722 76.69948503791046 C167.21265767455992 75.83145763904915, 174.95334883842645 77.88107576432363, 179.37985155953385 80.72867555870984 C183.80635428064124 83.57627535309605, 187.4087528271189 89.13591333546506, 188.9971156417516 93.78508380422771 C190.58547845638432 98.43425427299036, 190.80883382386818 104.11241866703088, 188.9100284473301 108.62369837128568 C187.011223070792 113.13497807554049, 182.33191383762448 118.20211913173866, 177.60428338252302 120.85276202975658 C172.87665292742156 123.5034049277745, 165.60792981383292 125.50886520412388, 160.54424571672138 124.52755575939321 C155.48056161960983 123.54624631466254, 150.35488228893007 119.26889041128875, 147.22217879985374 114.96490536137253 C144.0894753107774 110.66092031145631, 141.48037464554096 104.12158050405878, 141.7480247822634 98.70364545989591 C142.01567491898584 93.28571041573304, 145.0945192895989 86.41858507574577, 148.8280796201884 82.45729509639527 C152.56163995077787 78.49600511704477, 161.37726415098768 76.04061442669683, 164.14938676580033 74.9359055837929 C166.92150938061297 73.83119674088897, 165.4808743085447 75.40986496729582, 165.4608153090643 75.82904203897168 M174.71534087982297 77.06655938475949 C179.31242560965904 78.14962406314685, 182.99711703324465 82.22944586018832, 185.4528196952334 86.80355923720614 C187.90852235722213 91.37767261422397, 190.2012335862066 99.30094429277645, 189.44955685175535 104.51123964686643 C188.6978801173041 109.72153500095641, 184.4826484079406 114.62502982920516, 180.94275928852593 118.06533136174599 C177.40287016911128 121.50563289428682, 173.15457509882154 125.07474206076225, 168.21022213526746 125.15304884211143 C163.26586917171338 125.23135562346062, 155.6247228928865 121.81346227037764, 151.2766415072015 118.53517204984108 C146.9285601215165 115.25688182930452, 143.10392371774182 110.60392276378792, 142.12173382115742 105.48330751889202 C141.13954392457302 100.36269227399612, 142.96718789381674 92.2625197316154, 145.38350212769507 87.81148058046564 C147.7998163615734 83.36044142931588, 151.9113197718417 80.7511908929685, 156.61961922442745 78.77707261199347 C161.3279186770132 76.80295433101846, 171.05492502873332 76.3824993576081, 173.63329884320953 75.9667708946155 C176.21167265768574 75.55104243162289, 172.4261141514357 75.84145387049116, 172.08986211128467 76.28270183403782" stroke="#000" stroke-width="1" fill="none"/></g><g><path d="M137.36617467070135 115.43555488574154 C137.36617467070135 115.43555488574154, 137.36617467070135 115.43555488574154, 137.36617467070135 115.43555488574154 M137.36617467070135 115.43555488574154 C137.36617467070135 115.43555488574154, 137.36617467070135 115.43555488574154, 137.36617467070135 115.43555488574154 M132.47020723880945 124.7879264285622 C134.49454910354333 121.43687957341184, 137.28404440175993 119.66632993673674, 148.08510060875315 109.58860115182887 M133.6717219502866 125.45717495751067 C137.167755257844 122.8472018453639, 139.05061799747585 120.4291654814954, 146.87682722391202 111.1298106293884 M132.61894432587457 132.4451629101396 C138.72559576383168 124.82366432465336, 145.52539169846568 116.15799071609901, 155.33154962278053 106.70435838282546 M130.77054835968212 134.89519983415735 C138.96872225309824 126.56284078904584, 145.62522855772707 118.16145608710634, 154.6423555592539 107.73521290586224 M134.74212050161756 140.04868392434201 C140.23636536102063 131.90300011457484, 145.6909967185536 124.28183260342706, 157.58655013895483 110.70925533026843 M132.54067223205794 137.78694088868045 C141.07612523408721 129.90974354549294, 148.2364750863094 121.07025075208023, 158.09180822549945 109.23355948945402 M133.27342054091048 141.02353216448026 C147.10759080355223 131.24820257345908, 155.53847724446706 116.97698194111723, 163.923061221269 110.2266555739965 M135.9091698314659 142.44988761567478 C143.34448248017426 133.36394949893884, 149.18173556312024 125.48756359665485, 162.24291666637095 110.966598626941 M134.75730188117308 148.5443070247228 C146.6411335382779 133.63123438424887, 156.13335644942848 122.45642341146494, 167.61027159859654 111.42829648449803 M135.86408161059862 146.1699892391557 C143.38320156281927 138.61333113834704, 151.23343425424306 130.0906369170372, 168.36506485642366 111.33383649961429 M138.1220888241324 152.25262653558616 C148.53466424474945 142.14786379072612, 156.06220281819841 131.3471157455502, 172.1275314526492 113.97814363725068 M139.07221444649986 151.52771186290158 C147.55393404806983 138.2935835899553, 157.90613942277915 128.53086087497704, 171.77640167601118 112.39342631185785 M142.42306301518602 151.5549467057434 C154.12419036364827 142.27640242396163, 162.33905570947965 130.04108062109265, 176.1171101654407 113.62424105775102 M141.22727007298127 151.97508800615938 C150.95683457521028 142.6199675152248, 159.46289712154464 132.52682701641194, 174.55269844127346 115.90356697882216 M146.248659378699 154.55136294932583 C157.1181868863642 143.8284405049751, 165.75308455813675 131.3871928217663, 176.87641151424603 118.29664597552471 M145.5612439561258 155.59167510261761 C153.41795704644025 144.3160612136661, 163.0297081056344 135.65447152044578, 176.5667314225363 118.16489139206178 M149.59973026010766 157.77303391765423 C158.45258927586576 147.8658123216461, 169.105463890708 132.70701687085628, 180.73830872846358 119.59130369046464 M148.32768883410156 158.5769776402286 C157.85337247711502 145.53906122764297, 169.07617884059934 133.31353572417524, 179.87356441557654 121.40433215625235 M151.32897163509983 158.1197611730839 C159.53330715356546 148.7508006718261, 170.46342102296936 138.84365582865897, 184.36169615759877 124.86093905114797 M152.46540758365944 159.74554232726257 C160.28117159140442 150.54584734275494, 167.11156350714992 139.90766636826768, 183.4632619582563 125.27778639060143 M157.16076087682572 159.30166934664655 C165.91658635673633 147.1352504795557, 177.26738609294955 136.94123819768518, 182.9481876072982 128.73043027610694 M158.56121432015232 159.18080986244797 C167.00180803909367 147.83072517072162, 177.06297531551695 136.29143328231584, 182.90150856075684 130.4866539201792 M162.8038060009718 159.06690571843072 C169.77051750373914 151.54963596899094, 178.21722950334598 143.25359024100766, 180.47370552694477 138.2739712052882 M164.27104632501585 157.55276423056839 C167.8707074442418 152.946017820581, 172.96847302839598 148.7080247968262, 182.95650759380027 137.37398582389105 M171.4035085260515 157.8901067148137 C174.98449097120658 149.5460142017576, 179.07198229136523 147.51840637473472, 184.37463714454705 142.49930307127323 M170.46267062364132 157.56073044602687 C173.75479371403682 152.50932500727413, 176.83397637260742 147.87248413876043, 183.0365476969458 142.81508614579397" stroke="#23e2ea" stroke-width="0.5" fill="none"/><path d="M154.12396436224597 107.66553674906234 C159.4625850315178 106.74344229256428, 166.11917990174123 108.1762264667607, 170.85390064183028 110.9625279530758 C175.58862138191932 113.74882943939092, 180.63606730273787 118.99175313856571, 182.53228880278016 124.383345666953 C184.42851030282245 129.7749381953403, 184.54354519060206 138.03551391434817, 182.23122964208403 143.31208312339956 C179.918914093566 148.58865233245095, 173.83505202881977 153.3623597603954, 168.6583955116719 156.0427609212614 C163.48173899452402 158.72316208212737, 156.46051379325473 160.5118153425152, 151.17129053919675 159.3944900885954 C145.88206728513876 158.2771648346756, 140.33900167013388 153.7229741682703, 136.92305598732395 149.33880939774255 C133.50711030451401 144.9546446272148, 130.58838815383558 138.75543026240274, 130.67561644233706 133.08950146542895 C130.76284473083854 127.42357266845517, 133.10250806957538 119.61275869926182, 137.4464257183329 115.34323661589981 C141.79034336709043 111.0737145325378, 153.1580396656985 108.82209247620494, 156.73912233488224 107.47236896525695 C160.32020500406597 106.12264545430895, 158.92570179581068 106.76624730254667, 158.93292173343528 107.2448955502118 M154.7463242077126 107.05736342209798 C159.9395789853847 105.96751930284735, 166.2650767570554 107.35479905475103, 170.88970821481948 110.3667677786606 C175.51433967258356 113.37873650257018, 180.7176462687015 119.6953296757697, 182.49411295429718 125.12917576555539 C184.27057963989287 130.56302185534108, 183.68536460671586 137.56246642532008, 181.54850832839367 142.96984431737474 C179.41165205007147 148.3772222094294, 174.84405313969825 155.18438706921643, 169.67297528436404 157.5734431178834 C164.50189742902984 159.96249916655034, 156.03603127068573 158.9017130402985, 150.5220411963885 157.30418060937654 C145.00805112209127 155.7066481784546, 140.07085963368093 152.11666383663737, 136.5890348385806 147.98824853235172 C133.10721004348028 143.85983322806607, 129.53203210172384 138.29161347880353, 129.63109242578662 132.5336887836627 C129.7301527498494 126.7757640885219, 132.83017413250892 117.92100320087008, 137.18339678295732 113.4407003615068 C141.53661943340572 108.96039752214352, 152.94410443674786 106.41938481473032, 155.750428328477 105.65187174748303 C158.55675222020614 104.88435868023574, 154.34039576676034 108.28272616679189, 154.02134013333222 108.83562195802305" stroke="#000" stroke-width="1" fill="none"/></g><g><path d="M113.2175296806236 142.14392582019187 C113.2175296806236 142.14392582019187, 113.2175296806236 142.14392582019187, 113.2175296806236 142.14392582019187 M113.2175296806236 142.14392582019187 C113.2175296806236 142.14392582019187, 113.2175296806236 142.14392582019187, 113.2175296806236 142.14392582019187 M107.38772748288943 153.45656747803181 C111.67148074853799 147.11509645993056, 118.39982487587953 143.94820539030394, 123.18735723328558 133.66606518962843 M108.86257371543299 153.17478731033123 C113.05353030090652 149.09018055783676, 115.58063447094916 144.7682465230995, 125.74376153391503 135.8944251024635 M107.43792237804253 158.7834709741289 C115.20222358941264 152.17063956842443, 120.58378278024274 145.2513773548784, 130.73163722812313 131.8185825140399 M108.11238507284587 159.81565340736105 C114.67678166097522 153.14147436808028, 120.1038229941482 146.16325596864644, 131.65700549647104 132.22140423997988 M110.71515932170104 164.96596109173913 C119.31219726468541 153.53018612068414, 126.74787907696115 143.6439111230503, 137.99597470353413 135.97321016731541 M109.96211494633278 164.17943584217883 C116.05733859443845 157.94287407308502, 121.57657136304908 150.6000819884392, 135.49842539377394 133.70619137920352 M110.35772397478341 168.46222947786393 C117.29407369745374 160.14918635643468, 128.68556046632625 150.2979650050189, 142.16127741553564 133.68519600901948 M110.84792952801102 167.8105880091383 C121.37329042417228 156.56947769305444, 131.05894563080392 146.11448951036448, 140.75024208645328 134.01867769236196 M112.39491074630168 174.35801012433984 C121.01011240883884 164.7242678197062, 126.5051837821101 154.94951634205552, 144.81030565055352 136.36937076843193 M111.68352121018583 173.85029753919943 C125.58580048648774 159.96284055036875, 137.37142656554755 144.1887625570879, 145.74690661643203 136.53551297564817 M114.45385113076053 173.82528658679053 C129.57225506431155 160.2452486959275, 137.8604040948213 148.57900957150122, 149.84270006525313 137.70473246171457 M117.01166922188324 175.79987370180288 C129.29874678411764 161.80765986085737, 141.30277361192896 146.51388166558425, 147.57072826053226 138.43937759816086 M118.84801638442663 176.14128758858118 C129.90559716236257 162.92094950347976, 143.7770693698973 153.51582857703949, 151.12796388048815 143.62144296862135 M120.15668983017996 177.41684481020746 C128.6043019756865 166.21800239405297, 138.0206019499168 155.58479693969116, 151.2011736584239 140.7853456425953 M124.89717289374202 178.29783135406802 C134.53972708137874 166.56304927883951, 145.44284373802287 156.95146441208962, 154.83567529905463 145.01467308706083 M124.47145912382673 179.13980722840665 C131.77582741763695 169.41422196214816, 140.2207868151204 158.49734347901514, 153.8055102423142 144.32399343200467 M126.85652757386572 179.18277128048337 C138.29169313357517 166.99534178941667, 148.22539141490338 155.50984023100176, 154.83565583669488 147.80333652450494 M126.68684204031086 181.04053257517614 C136.04322745909425 170.8586784834998, 144.98134279787482 162.87191749344152, 155.69814395620386 148.08785920656013 M134.40814374322443 180.01209016907717 C140.53500978932053 171.21517295706494, 147.3788000801106 162.93655795197893, 157.9468209424941 153.73843233914423 M132.75088809052698 180.2105864083823 C140.33521074617545 171.27104129831986, 147.4585791744087 163.440827605616, 156.96282303410587 152.36763996805848 M137.5299104488841 178.14422582821987 C143.33448111492467 172.5350958916541, 147.70097656669464 167.91951296309054, 156.16610313243223 160.97275957354316 M139.61596746346865 180.21184421245943 C145.67333882398765 172.4781655705467, 152.16117233030405 163.76684456672317, 155.33016429176604 159.01117016318267 M145.4268481414935 177.91191918313922 C148.47505247402643 173.61331986501492, 154.1436199108709 168.69924674164022, 155.3422095695692 166.71716821044157 M144.24121718012992 179.20112362350685 C148.2452403312195 175.5724464614275, 150.38240323265478 172.80291645366532, 156.15735790861024 165.205927444749" stroke="#f6b6c8" stroke-width="0.5" fill="none"/><path d="M129.67373233442757 132.14703590224835 C134.82123019478757 131.20678023336205, 142.57764228839497 133.55759723752251, 147.00800961226503 136.303268910189 C151.43837693613509 139.04894058285547, 154.71423473559307 143.67767227943796, 156.25593627764786 148.62106593824723 C157.79763781970266 153.5644595970565, 158.24161503462582 160.9881043900536, 156.25821886459374 165.9636308630447 C154.27482269456166 170.9391573360358, 149.2181440418199 175.98158004115814, 144.35555925745535 178.47422477619386 C139.4929744730908 180.9668695112296, 132.4011791111397 181.8690607004945, 127.0827101584065 180.91949927325908 C121.7642412056733 179.96993784602367, 115.65349854256688 176.96981055372828, 112.4447455410562 172.77685621278144 C109.2359925395455 168.5839018718346, 107.68279039543184 160.8886635372507, 107.83019214934238 155.7617732275781 C107.97759390325292 150.6348829179055, 109.30961223495792 145.99371461614575, 113.32915606451944 142.01551435474576 C117.34869989408095 138.03731409334577, 128.7080919630678 133.48111845342947, 131.94745512671147 131.89257165917817 C135.18681829035515 130.30402486492687, 132.91028679961659 131.81997899800012, 132.7653350463814 132.4842335892379 M127.55770928278854 132.44606560510738 C132.55605978072927 130.85417605943414, 140.80656665453716 131.65000884504047, 145.55222058542458 134.14256924435847 C150.297874516312 136.63512964367646, 154.15779308920986 142.60755959553674, 156.0316328681131 147.40142800101538 C157.90547264701632 152.195296406494, 158.5127357395444 157.9982290319503, 156.7952592588439 162.90577967723024 C155.07778277814342 167.81333032251018, 150.27257399612694 173.62975314777657, 145.72677398391016 176.84673187269496 C141.1809739716934 180.06371059761335, 134.8828189940578 182.6459612508358, 129.52045918554325 182.20765202674065 C124.15809937702869 181.7693428026455, 117.04968970484326 178.16780305210185, 113.55261513282287 174.21687652812398 C110.05554056080247 170.2659500041461, 108.62204051886353 163.57058634603942, 108.53801175342088 158.50209288287348 C108.45398298797822 153.43359941970755, 109.9875441825858 147.82122260432195, 113.04844254016693 143.80591574912842 C116.10934089774807 139.7906088939349, 124.78912920388606 135.9754046474146, 126.90340189890773 134.41025175171225 C129.0176745939294 132.8450988560099, 125.78813437882917 134.3895470551638, 125.73407871029696 134.41499837491438" stroke="#000" stroke-width="1" fill="none"/></g><g><path d="M77.03856757248758 155.74447564549303 C77.03856757248758 155.74447564549303, 77.03856757248758 155.74447564549303, 77.03856757248758 155.74447564549303 M77.03856757248758 155.74447564549303 C77.03856757248758 155.74447564549303, 77.03856757248758 155.74447564549303, 77.03856757248758 155.74447564549303 M77.36324053624654 161.57307761684777 C79.97835523760833 157.90455058058416, 86.57380409796798 153.9127719817626, 94.05156004844127 143.48699743499165 M77.62179311986549 162.38796607469823 C82.00096715328552 155.78736580802556, 88.24293296295315 148.28596032406256, 92.99783436742413 144.27493615666162 M77.03483757952233 168.93165998904217 C81.34904305547559 164.4675840594554, 84.88973462143902 159.156372011742, 100.09279989252467 142.84152780462043 M76.92950903855102 167.32615772777532 C83.18733574217785 161.10982639206293, 87.8696092863143 155.44776515657017, 98.73312492419046 144.30604181871607 M77.80348618162691 173.53186585439636 C83.81430688465609 163.2135771377561, 94.70710156362097 154.04311924155158, 102.84802372050451 141.326053194544 M76.53031215382137 174.1161339895957 C85.23046162284578 165.10182217435192, 93.61730256170816 156.73326116023037, 105.26641250694168 141.72970456650722 M78.5432430684215 176.9838665832545 C87.40886849581243 167.2338249863022, 98.32706735728243 157.73700829596868, 108.95770969534604 145.78452017651213 M79.69703653116115 176.24311632647127 C90.9320349557007 162.96985655195206, 102.63821236219437 150.55927510163346, 107.16838689625811 144.23619952179476 M81.10807838037367 181.7738343370359 C88.76508640194714 172.85016307115347, 95.43662039464847 166.4336961074003, 110.79728294567627 144.67154324606278 M81.33340040491707 180.48322224215752 C92.32004294541329 167.61204524493095, 102.45670786624233 154.6645831827862, 112.58209408812658 146.58940656480326 M85.41930816398711 182.97252411733461 C94.8280465026121 173.58837053095922, 101.66357514993452 161.87653113698235, 115.96937126466173 146.8733026812375 M84.0845243399246 183.9841222017432 C91.30477635949845 175.4041045105713, 98.1088153696765 166.87833645329374, 113.83622021221302 148.29708834089197 M87.31655580046292 188.77565547797607 C97.16026721515728 174.24750358422116, 105.88681834195842 163.80228881274274, 119.28532852902127 151.72644719718414 M87.548858893133 186.20124822691568 C92.90743358841551 179.84255440259585, 100.14574656672741 171.92823450671338, 117.86493866730771 150.24238628157497 M92.60287453066756 190.17297124469843 C101.94149062813644 175.1443198037565, 110.23604121037484 165.68362847973378, 120.52106842906657 155.57815887376782 M89.81076682364943 187.83115702013737 C97.47544808165044 180.7020008677161, 102.8722208685371 173.99912549850637, 121.05934576107342 154.69635282386275 M94.22627025102408 189.4554238164041 C103.14101076712268 178.36007211074644, 112.09749813924005 167.31890546287252, 121.54121696602775 159.9499814911 M94.3081371741806 189.46641656643018 C105.4567008984776 179.24612749573515, 113.59124242034726 167.34489183017948, 122.91576658868507 159.07584196165195 M100.26240595132307 189.61659493907408 C104.22267925697389 184.75126941252137, 108.22192219314354 177.75032943485414, 121.8277916302557 165.41108723166693 M99.40324381298015 191.10967956718693 C106.36731171463668 182.62827255207776, 113.25378346686048 176.17702991206042, 123.35090366753886 163.57850928925185 M105.39525895872913 191.2564233464818 C112.40649141868073 182.46423213974398, 114.91862291536339 179.2145674509672, 124.20633168454233 166.18449682859406 M105.529635130813 190.70861193348716 C110.79618576782465 183.7335237500546, 114.88863255821273 178.96515906634582, 125.67744839210283 168.23911265720565 M115.86307389216245 184.57369827946133 C116.88190553077015 182.80408522848865, 117.86046112020428 182.34263411283234, 118.74250393272473 180.07983972585168 M115.83844930341273 184.42428380983162 C116.87535783726432 183.17406046016325, 117.85840867997447 181.5969669539844, 119.3666381538075 180.59636574867366" stroke="#43f452" stroke-width="0.5" fill="none"/><path d="M105.60730820746203 141.95084822078803 C110.32154119453293 142.73520626556407, 114.60690374196312 146.36331681122692, 117.75049377797271 150.57696016547513 C120.89408381398229 154.79060351972333, 124.48279225478099 161.91896910149524, 124.46884842351952 167.2327083462773 C124.45490459225805 172.54644759105935, 121.05050427985964 178.58308165223534, 117.66683079040388 182.45939563416744 C114.28315730094812 186.33570961609954, 109.19247172644315 189.56751994048372, 104.16680748678495 190.49059223786992 C99.14114324712675 191.41366453525612, 92.02901030165337 190.73476210474556, 87.51284535245466 187.99782941848466 C82.99668040325595 185.26089673222376, 78.8698967215867 179.382014191989, 77.06981779159265 174.06899612030455 C75.26973886159861 168.7559780486201, 74.7541078577762 161.06281219671325, 76.7123717724904 156.11972098837796 C78.6706356872046 151.17662978004267, 83.46704885139297 146.58146975554072, 88.81940127987781 144.4104488702929 C94.17175370836264 142.23942798504507, 105.02154639013831 143.2754818348544, 108.82648634339938 143.09359567689106 C112.63142629666045 142.91170951892772, 111.82700948720408 142.89949814073356, 111.6490409994442 143.3191319225129 M102.24185979933549 140.8728760259086 C106.82105486108895 140.94320971963435, 112.66081678912735 143.62966546054844, 116.32181863127434 147.53210934319466 C119.98282047342133 151.4345532258409, 123.47581954157076 158.69751619003515, 124.20787085221743 164.28753932178594 C124.9399221628641 169.87756245353674, 123.5379746875743 176.91636043090813, 120.7141264951543 181.07224813369947 C117.8902783027343 185.22813583649082, 112.30554887063903 188.17183887642375, 107.26478169769743 189.22286553853405 C102.22401452475583 190.27389220064435, 95.32761631941966 189.27640964962467, 90.46952345750466 187.3784081063612 C85.61143059558967 185.48040656309774, 80.38045932493213 182.42134695025152, 78.11622452620745 177.83485627895328 C75.85198972748276 173.24836560765505, 75.51670593536677 165.35464531158442, 76.88411466515653 159.85946407857185 C78.25152339494629 154.36428284555927, 82.21238174133265 147.90726404381004, 86.320676904946 144.86376888087779 C90.42897206855935 141.82027371794553, 98.92166169201744 142.17524177387708, 101.53388564683667 141.59849310097835 C104.1461096016559 141.02174442807961, 102.10026919067396 141.0277170009415, 101.99402063386134 141.4032768434855" stroke="#000" stroke-width="1" fill="none"/></g><g><path d="M43.92458089879338 146.83412109405955 C43.92458089879338 146.83412109405955, 43.92458089879338 146.83412109405955, 43.92458089879338 146.83412109405955 M43.92458089879338 146.83412109405955 C43.92458089879338 146.83412109405955, 43.92458089879338 146.83412109405955, 43.92458089879338 146.83412109405955 M43.26257784512501 154.5244566149933 C51.009838546827126 147.01856623385086, 56.00410653318252 140.51469056664374, 60.22596289908389 135.53193147666292 M43.25284865861721 153.94553501261998 C48.00051332738542 147.5835733699091, 53.07399740696531 143.32313729401267, 61.10410104380139 134.01252550809286 M43.31502702458864 162.56075097974758 C48.88309420050026 152.91716316968737, 61.58846220135773 139.9345232848201, 67.81625749157135 134.614526910432 M40.59932215272447 162.80241712923453 C46.42264663223004 156.45431295696733, 52.52115625588443 149.10341594091705, 66.47112592311821 133.95986726270823 M43.34532234477614 164.27877682446803 C54.12562685412983 154.44480610331465, 63.49204053411928 140.49950968570738, 71.90417817810044 131.6332725281907 M42.99609382761018 166.49034747910915 C53.64113740473301 154.52610543975476, 63.58669359333582 142.3070900005681, 72.23479815225078 133.87102567240282 M46.815864023131496 168.4075550947203 C54.061616103710826 158.19141481940275, 65.10891358282987 149.84246964968935, 76.02903648346867 135.39820534979071 M45.19315890402302 169.23060633952545 C53.58359124089289 158.656427115419, 62.20264341590604 149.11941396836278, 75.53348539180558 133.9741341637576 M47.2376703648896 174.34400221680403 C60.92374948227765 157.49022876572883, 72.8704619270956 145.95199510649502, 80.43064641870951 135.15568131774856 M46.962679981790025 171.85873019270105 C58.82030105318829 159.39701282601533, 70.24268216712174 147.27322903670444, 79.84337043475777 137.45124442905637 M52.384436186652735 174.96918040560072 C63.94643146372768 160.1950710212532, 74.72955612498396 145.89619784033349, 80.45845208430754 140.1834876674805 M49.95256989853227 176.32027388269645 C58.062830301055996 167.7640648436449, 65.4502768948033 159.3416996344325, 82.34723578753712 140.12197036487225 M54.615361445310725 179.31895672753487 C59.227797829471555 169.71389978715908, 69.44962463905595 161.39055863683603, 84.1389227953874 142.40666958136347 M53.61941473713998 179.74247268805297 C62.39300028016939 168.86567366182354, 70.45894899395968 156.8453511671818, 85.14125425665601 140.9825951892894 M57.105824511023776 178.60964033334014 C64.46365949688003 169.61279368166805, 76.40365973540969 160.26947907238068, 89.17244472148172 143.10178757219032 M58.49279938319139 179.88139901655722 C67.56914209504205 167.73494184893755, 78.37245843578538 155.48019317811048, 87.4573551621974 144.52453348787833 M62.75935646882887 181.16620005925023 C66.29687988656589 173.47162989390392, 72.88139747177027 168.05159935300915, 91.80419290245295 146.6196502273647 M61.08493548062835 180.24508012003093 C69.74074667047765 171.91873524520452, 76.58546295107634 162.73103684895963, 89.45120188640506 148.0396078419365 M65.55283256830329 183.6440329608724 C73.02036850670395 174.9053126705927, 78.87300908913473 169.02182833959992, 89.89333377805649 153.75738279155712 M65.95154083950348 182.30908195800765 C75.74792776758386 172.55289784907563, 84.90895318130828 160.72093075337892, 90.45693522309368 153.36333209556366 M72.46158315193739 183.5907676389128 C78.04135877199181 174.1348184779463, 86.27775856170187 161.70988284766267, 91.54343513396758 157.19860522074003 M70.8545866643861 181.94107716741746 C76.13034307763806 177.9576186344839, 80.61830654454222 171.3799744631671, 92.38396500787042 157.15774165900962 M81.00968701546175 179.35629365548095 C82.26370294660468 173.81793803194125, 86.3515237869807 170.07964205526707, 90.54049495360795 169.05024392104426 M80.03360151341978 178.5599810660447 C82.59667173661428 175.8634546903621, 84.70209860511898 172.37089172986913, 88.79375405898028 167.94445417181922" stroke="#f564ee" stroke-width="0.5" fill="none"/><path d="M56.41156230891514 133.45479199560538 C61.0237067479364 131.20894312215776, 68.621066832736 131.37670333952832, 73.85390712453892 132.93283265221476 C79.08674741634184 134.4889619649012, 84.58678994287659 138.39560627006378, 87.80860405973262 142.79156787172403 C91.03041817658864 147.18752947338427, 93.72489984275386 153.83208531328324, 93.18479182567503 159.3086022621762 C92.64468380859621 164.78511921106917, 88.71020755101418 171.62329650958526, 84.56795595725968 175.6506695650819 C80.42570436350519 179.67804262057854, 73.75511705924643 183.15104952358868, 68.3312822631481 183.4728405951561 C62.907447467049764 183.79463166672352, 56.525288712246166 180.90707592222617, 52.02494718066968 177.58141599448635 C47.52460564909319 174.25575606674653, 42.67375550127013 168.64980163156397, 41.329233073689174 163.51888102871726 C39.98471064610822 158.38796042587055, 41.21168661918947 151.79266830288128, 43.95781261518394 146.79589237740612 C46.70393861117841 141.79911645193096, 55.019216783014734 135.9756976361425, 57.80598904965597 133.53822547586634 C60.59276131629721 131.10075331559017, 60.352138932068 131.74058238844458, 60.67844621503137 132.17105941574903 M63.83388045794934 131.60762767401522 C68.97730331408661 130.7107787049784, 76.87182312377416 133.78430502555565, 81.31527863432102 136.6157552409156 C85.75873414486787 139.44720545627555, 89.1665267616375 143.64604995000045, 90.49461352123049 148.5963289661749 C91.82270028082348 153.54660798234934, 90.97554767293443 161.14680617196342, 89.28379919187894 166.31742933796227 C87.59205071082346 171.48805250396111, 85.04976983975297 176.83186281857166, 80.34412263489759 179.62006796216798 C75.6384754300422 182.4082731057643, 66.75501210511722 184.129368144843, 61.049915962746645 183.04666019954007 C55.344819820376074 181.96395225423714, 49.614871600827385 177.65604800357323, 46.11354578067416 173.1238202903504 C42.61221996052093 168.59159257712759, 39.815852108072654 161.4855671435663, 40.041961041827264 155.85329392020313 C40.268069975581874 150.22102069683996, 43.6350402480687 143.47367245719101, 47.4701993832018 139.33018095017133 C51.305358518334906 135.18668944315164, 60.26017209278193 132.439722304055, 63.05291585262588 130.99234487808508 C65.84565961246983 129.54496745211515, 64.05351143597545 130.237193435064, 64.22666194226551 130.64591639435181" stroke="#000" stroke-width="1" fill="none"/></g><g><path d="M21.898929485769855 119.73743646886211 C21.898929485769855 119.73743646886211, 21.898929485769855 119.73743646886211, 21.898929485769855 119.73743646886211 M21.898929485769855 119.73743646886211 C21.898929485769855 119.73743646886211, 21.898929485769855 119.73743646886211, 21.898929485769855 119.73743646886211 M22.10834897081423 129.04473708095284 C24.41433423203941 123.7181187385922, 31.17548268757359 115.88755152685322, 35.37770968839097 108.29409755948244 M21.0124823084359 127.68206261942689 C26.350945329820817 119.82735622946973, 33.10736266144666 113.41379402214977, 37.01504484696686 109.42025512523938 M20.883813247601832 133.23146748972655 C22.500929526146336 130.34066212990027, 29.291130347801374 126.19074862666281, 38.71986962456106 110.96011939957762 M18.427733588150367 134.6677076610388 C23.770792862798334 130.05629326608496, 29.10509895815479 124.86757745802183, 40.00888813807404 112.46779572612962 M22.012248777362135 137.32824281956312 C24.638562414394865 134.8851095910265, 28.844408908588605 129.51213295044383, 42.84277730944629 111.53828715749817 M20.832096350961116 138.49201289237195 C30.687471325432675 129.0853919874115, 38.31633853535069 118.29047557988478, 44.24281999289353 112.65825373053578 M24.514664262204253 141.9472840795783 C29.621329858749135 131.90979536814817, 39.22338283000198 123.94344805567295, 48.14235607314343 113.37429356451968 M22.599667907632018 142.5302311274772 C30.788472245276438 133.9240374512746, 40.43533306232473 124.07245673494077, 49.88313009255768 113.288013493795 M26.289786915597677 148.97780559751104 C32.81989329494086 138.80242467124475, 38.63672942860226 133.23735992932302, 54.56707224008518 112.59229928170858 M24.098468368094466 146.84513400475709 C31.571256647033586 138.8184282099465, 37.736571681483056 132.01753182207122, 54.47080506130602 112.62158962427573 M26.495425014394964 151.56661007142947 C35.15406273194477 143.6522056205764, 40.16916488539101 132.6538979980117, 59.62346613804203 113.99392383762033 M26.578504418197422 152.2593506206659 C36.21122011038723 139.71810074646694, 47.184673032989366 127.60143113044346, 58.273678744523195 115.12450867669648 M31.883823246611684 154.09525462800804 C41.10399920903683 142.69353579841882, 49.239307015525675 131.36225115816072, 58.75099275757337 118.10024850066526 M30.590955061914357 152.4104826323277 C39.00314692291854 142.49207486491107, 47.09567497014153 131.44177500900656, 60.34483971949351 117.1451147316329 M35.34515329697736 153.46618612618943 C46.575320268228715 141.34616330976667, 54.91156787710721 130.09679312156754, 65.41008937538308 119.49021025597771 M34.941518928095014 154.91829718148946 C42.059551397904734 145.31502272183297, 49.33813323203287 136.3583919586704, 64.57233899899336 121.33857689658618 M39.02616433996461 156.88575113561603 C46.90806098258716 145.05581321689635, 60.38929752716078 129.7471857118275, 67.95339831820728 122.11078981177359 M37.3097627594735 156.99703903252814 C44.83124030139011 147.33651332372844, 52.97492795305945 138.64637951834317, 66.67749512887106 123.31509099765574 M40.7279265963732 157.10317019311634 C46.42962081901373 153.44415041602213, 52.431297728324914 144.89969615665873, 66.47742153494255 129.01331584389536 M42.315280681723245 158.8503433628309 C47.54958939039426 150.28015729402486, 52.325578037909324 145.49013057711025, 66.37168664686521 130.19825685261085 M48.895125540881175 157.60966991308146 C53.21989970378406 149.60399041539688, 55.467063521607066 146.99783487422533, 64.92683604190982 136.72416820469908 M49.220471409968056 155.2442367507788 C53.88909563177463 150.60721878849492, 57.71073769137117 145.52118288195575, 66.95227547546581 135.99412090070223" stroke="#6fec54" stroke-width="0.5" fill="none"/><path d="M53.79424884404081 111.81739542510338 C58.62273454467229 113.61342885292048, 64.04880943279124 117.88541366211194, 66.02447404122047 122.38491795927759 C68.0001386496497 126.88442225644323, 67.31021906742431 133.79744362006423, 65.64823649461614 138.81442120809726 C63.98625392180797 143.8313987961303, 60.23419828532508 149.51931022552245, 56.052578604371426 152.48678348747583 C51.870958923417774 155.45425674942922, 45.76473744070964 157.04368009315638, 40.55851840889421 156.61926077981764 C35.35229937707878 156.1948414664789, 28.46339625715648 153.67014116955977, 24.815264413478868 149.9402676074433 C21.167132569801257 146.21039404532684, 19.103574499477926 139.33388379986368, 18.66972734682855 134.24001940711884 C18.235880194179177 129.146155014374, 19.25979370653621 123.5468963953389, 22.212181497582627 119.37708125097427 C25.164569288629043 115.20726610660964, 30.61366379786586 110.28459537037766, 36.384054093107046 109.22112854093103 C42.15444438834823 108.15766171148441, 52.98293042269489 112.09623188576869, 56.834523269029745 112.9962802742945 C60.6861161153646 113.89632866282032, 59.92338806949338 114.26487407453847, 59.49361117111615 114.62141887208595 M33.79233483007134 110.2550303616463 C38.27191176697657 108.09326916879299, 43.64985611926474 108.70080916229189, 48.59958131233978 110.25879889857822 C53.54930650541482 111.81678863486455, 60.507120528592644 115.47930158125305, 63.49068598852158 119.60296877936426 C66.4742514484505 123.72663597747547, 67.1496146405484 130.15643207557076, 66.50097407191338 135.00080208724546 C65.85233350327835 139.84517209892016, 63.032965242194905 144.94891675341327, 59.598842576711384 148.66918884941248 C56.16471991122786 152.38946094541168, 51.119988076637355 156.43351300986527, 45.89623807901227 157.32243466324064 C40.672488081387186 158.21135631661602, 32.762658172848 156.99383243828328, 28.256342590960895 154.0027187696648 C23.750027009073793 151.0116051010463, 20.165100156437735 144.43179235670718, 18.85834458768966 139.3757526515298 C17.551589018941588 134.31971294635244, 18.026018599072778 128.4635790983283, 20.415809178472458 123.66648053860062 C22.805599757872137 118.86938197887295, 30.959946915385444 112.6937683793101, 33.19708806408773 110.59316129316375 C35.434229212790015 108.49255420701739, 33.58480757134963 110.39761751660009, 33.83865607068617 111.0628380217225" stroke="#000" stroke-width="1" fill="none"/></g><g><path d="M16.03117059947831 82.83635964793409 C16.03117059947831 82.83635964793409, 16.03117059947831 82.83635964793409, 16.03117059947831 82.83635964793409 M16.03117059947831 82.83635964793409 C16.03117059947831 82.83635964793409, 16.03117059947831 82.83635964793409, 16.03117059947831 82.83635964793409 M11.441582682555076 93.8685083456606 C17.979607437766397 88.88739837808396, 20.815913307255858 83.15692066368358, 25.027818991469143 79.75888938536565 M11.360057488259123 93.76592508132873 C16.25979977972536 88.63878550775163, 20.827382924075224 85.68061965183077, 25.04501308063412 78.80928884767536 M8.636267687235165 100.92686244034181 C16.10259659121546 96.01655634503607, 20.235046925794034 89.27243762230532, 34.048354945723865 76.31666937634067 M10.048901504661607 101.99181920162935 C15.12024833021293 96.33330757274223, 20.699598579786244 90.00769898171023, 32.86282146868762 76.95952597112651 M13.066215605245485 107.15002356546545 C20.54644299382858 94.96927671382934, 28.955478900412047 88.3257028864332, 34.61976620660047 77.31899685894618 M12.209523163866955 105.64002766001568 C18.150188670568447 97.83946134516212, 26.233851328868887 89.01791489181468, 36.037453345267984 77.99817478005856 M12.923786390872095 110.52138827225761 C23.31646367466076 97.51944314179183, 31.76000379510216 85.9509732314661, 39.337033938999504 78.52038442369198 M13.395101121751084 110.05858179524506 C24.384414592527204 97.0595337126346, 34.539774805109246 86.12151831403497, 40.155340729253 79.8174660996179 M16.672331591883825 115.23638966097666 C24.110925168214944 102.67908962717667, 34.64317051502954 92.57953943640112, 46.33093282153791 81.55303987699912 M14.50816639417329 113.99283972422161 C20.26995710883148 108.13444813459762, 26.65187846362635 100.57805019097682, 45.88846530787991 80.38307569875168 M18.973760231677282 113.9756522818204 C25.311650468897483 109.32787249585841, 32.40889836030712 102.11834160598227, 50.344445657677106 81.17942466111128 M19.700392180859936 115.42506281261556 C26.0294036603957 108.50869239699247, 30.7693128895279 101.28885954826697, 48.23165421906929 82.85687098342025 M20.806739737506717 118.65308842918016 C28.570956107010584 110.35544195817711, 38.16564704617271 100.56935930902382, 52.542667738212934 86.14077586491406 M21.103267603035253 118.51174647819944 C28.778287578468362 112.09539979879743, 34.69062550026486 104.49077237731038, 51.22116124022977 85.02000053795246 M24.102703305822434 120.37779735251333 C32.77407029321672 111.52421376863273, 38.82592489526829 104.4725154519799, 52.721743907528136 88.40729392109063 M25.83956894857745 121.35878934033619 C33.261426268934365 110.45832718916355, 41.68408112873419 100.68790760540449, 53.13287443017491 88.80343902798664 M26.141999684420476 124.85329989667628 C38.63320132655305 110.97445637758037, 49.39921420514106 101.23081225324394, 56.295772985601076 93.17926993374458 M28.541654318731393 124.17529241417154 C37.33863352979727 112.31880873720017, 47.79084724924027 100.89634679746291, 56.271446591013266 91.91621795863344 M35.450425482355016 121.66733014209832 C41.20714278552169 114.46565058693439, 49.290531416261395 106.81682614734324, 58.74458654822696 94.48957437446066 M33.49849386683341 123.68271392244309 C41.511338012856754 114.42197745566664, 48.56440305287874 105.68953272785782, 56.575782595975525 96.76468595552942 M39.84543681472684 123.74608309617716 C43.81710460291009 118.14236145265356, 45.04303004549584 114.23867610610846, 57.589881178291776 103.7008862812547 M39.38637231560277 123.59049211294241 C45.71897849391178 116.41199681252482, 50.67950167221866 109.6706342162238, 56.65012404196871 102.3931898518332 M44.97354238498594 122.39232530890101 C46.742387841133045 118.7365142383657, 50.03442210559305 116.74854764130433, 58.206313580784 108.29171046400319 M46.05272879891459 122.34556841175542 C48.192735694263504 117.87129603638164, 52.915858848810046 114.22113425545045, 56.901561069576445 109.47917436843915" stroke="#d3a5dc" stroke-width="0.5" fill="none"/><path d="M31.869724928623263 76.00715258617247 C36.787113250544856 75.35564792680194, 42.96415607432925 77.87415541663134, 47.10215298476977 80.61716438839731 C51.240149895210294 83.36017336016329, 55.15966145657077 87.49889795808747, 56.697706391266365 92.4652064167683 C58.235751325961964 97.43151487544912, 58.28610187861984 105.51369745161112, 56.33042259294338 110.41501514048228 C54.37474330726692 115.31633282935344, 49.52804352859065 119.59183126224814, 44.9636306772076 121.87311254999524 C40.39921782582454 124.15439383774235, 33.862750543866596 125.46839653656937, 28.943945484645045 124.10270286696493 C24.025140425423498 122.73700919736049, 18.712548219505788 117.80537659114373, 15.450800321878308 113.67895053236865 C12.189052424250827 109.55252447359356, 9.28967454336169 104.46968701172642, 9.37345809888016 99.34414651431442 C9.457241654398631 94.21860601690241, 11.586876423810864 86.86995611902806, 15.953501654989129 82.92570754789664 C20.320126886167394 78.98145897676521, 31.67144677452506 76.73139254036846, 35.57320948594975 75.67865508752588 C39.474972197374434 74.6259176346833, 39.38788712971994 76.08426791306412, 39.36407792353725 76.6092828308412 M38.18670073610647 77.3203695341596 C43.278034186064744 77.94734586606754, 49.68881227413186 80.99547613350899, 53.20604920023087 84.62193366090021 C56.72328612632988 88.24839118829144, 59.30468364657537 93.79453218462004, 59.29012229270052 99.07911469850694 C59.27556093882566 104.36369721239384, 56.520747621549894 112.35207290791243, 53.118681076981744 116.32942874422167 C49.716614532413594 120.30678458053092, 44.09527952594814 122.32168294564255, 38.87772302529162 122.94324971636243 C33.6601665246351 123.56481648708231, 26.46139272845806 122.53826751197256, 21.81334207304262 120.05882936854097 C17.16529141762718 117.57939122510938, 12.937014384738145 112.50808788264708, 10.989419092798983 108.06662085577285 C9.04182380085982 103.62515382889863, 8.430351157012266 98.21119572682034, 10.127770321407645 93.41002720729564 C11.825189485803024 88.60885868777095, 16.617011384742014 82.33339947262186, 21.17393407917126 79.25960973862466 C25.730856773600507 76.18582000462746, 34.689174915928035 75.57192075347065, 37.46930648798312 74.96728880331246 C40.2494380600382 74.36265685315426, 37.96329630616917 75.06378387602923, 37.85472351150174 75.63181803767552" stroke="#000" stroke-width="1" fill="none"/></g><g><path d="M20.37866468708421 52.16524077395526 C20.37866468708421 52.16524077395526, 20.37866468708421 52.16524077395526, 20.37866468708421 52.16524077395526 M20.37866468708421 52.16524077395526 C20.37866468708421 52.16524077395526, 20.37866468708421 52.16524077395526, 20.37866468708421 52.16524077395526 M20.718461284883357 59.94004812402029 C21.44310612538804 56.152848157015974, 27.21793271377494 52.836262346408844, 33.14507244247019 44.09650544854488 M19.52603114187999 60.70544017446166 C25.0468488119281 53.79178929688524, 29.457742763863607 47.95947621860092, 34.138194016815525 42.48665007242204 M16.769713984126053 66.63887680323154 C23.858107947001578 58.1022636252865, 29.15907533289371 51.18499134324822, 41.47523128530337 40.845536722422565 M18.180289238459547 68.74776960963217 C25.362835147727083 59.614337862723715, 32.99869924452943 50.76832592513642, 40.68726965234945 41.2543158118227 M17.774277982948558 72.43101151382234 C27.388723901835316 62.887476549610064, 36.022621500948354 52.18926048649062, 47.03940538197976 41.963767641643855 M17.62499631630769 72.5111440190934 C27.52645910822409 62.97956543986662, 37.567224746126506 52.40416596089932, 46.09626004844199 42.525076659129624 M20.844042399837704 78.9565969201595 C26.298870451670098 68.05172837778507, 33.46589501059516 61.51806222736734, 48.885673136796946 42.811691318724044 M20.852214817729944 76.61998947805118 C28.083105984567915 68.3271715851861, 34.17979115326194 60.04799463680638, 49.620264631084176 42.098541022533446 M22.17266549282207 80.62569333179269 C30.024961510177263 71.48977124996212, 36.316927378420175 64.73362166905306, 53.57456403316379 41.45653309761919 M21.561762812991113 81.24354471577384 C28.78503406594851 73.08219991473474, 35.35967391212297 65.76298921701864, 55.11823482352987 44.23984390710689 M22.166266235782945 83.17851364515641 C36.50967542760341 69.21747619501657, 48.35578475239604 56.55931180875807, 56.61274552410497 44.90800152162653 M24.62353589529429 84.53965264062086 C32.699400554077286 74.97282779208541, 42.58294612568643 63.13054683228127, 57.07593813623729 45.144288976059585 M27.89375846385601 88.73791241368893 C38.226965207148396 75.4694510917609, 47.60073283115436 65.52430927477741, 59.25153832602244 50.19165710797049 M27.861252697295136 86.74663394262055 C37.01995201370433 76.06758147391767, 46.401461303080175 65.03611992205748, 60.084217765929054 49.32730469983371 M29.588939166067803 87.71138990480303 C41.260808778945844 75.28613589218425, 53.23426815809421 62.66973490621985, 64.3029510641463 50.18098657187916 M30.506470462739475 88.62494435190646 C41.28331621876398 76.49651056423997, 52.24449960003405 63.790714726265925, 63.854148639645985 51.72927709334746 M33.53116289718767 89.12844088125172 C47.22316675319722 75.70000760395021, 58.692149774418574 63.29989724141913, 67.09146218265133 52.86867633763336 M35.22080903660694 90.75709205912538 C42.77409262269798 80.31778292394173, 51.945687913302294 70.38808262986417, 66.57855544124475 54.71656567809138 M41.07688032072436 93.0721332652695 C47.38261502567558 80.64901109509125, 56.48081691281057 70.2949489143491, 66.41667437612831 61.32100274560345 M39.16743081150611 91.65589581364996 C46.26471122287264 83.35711064142289, 52.387433192746265 77.91588124470307, 67.52076110897856 59.80076115213873 M44.70085511190612 90.85314725661041 C49.68012178278462 88.02252572104746, 52.2131979689595 79.57877812654299, 66.69239161121256 66.6171754853634 M42.97998956881405 91.69716652829342 C50.58024119629002 82.81452295193807, 60.2037048718146 74.1340174060671, 67.66801236434306 65.76192873758812 M49.440122547586 92.64182493225032 C54.749666834440546 86.02621899081775, 59.87228416167494 77.26925551820212, 69.71543366538634 71.0313124000569 M49.341245324212444 90.65196760183169 C54.034594059412306 87.35084368454146, 57.92870217889007 82.64553660986104, 69.00976162640275 69.8107038641799 M55.31837837936998 90.90356684006866 C60.29484706861719 86.20173863607826, 61.32888105281419 83.59252582093623, 64.955743897925 77.88210829861649 M56.10623186000539 90.31713981071162 C59.30260481441617 87.66551187171311, 62.30128464838199 83.6969900986302, 66.27880904336162 79.35543766149202" stroke="#ecec0a" stroke-width="0.5" fill="none"/><path d="M35.91369359824621 41.5899485634975 C40.86104220128373 39.73416124588956, 49.017546616738514 40.263591043701524, 54.005073907295724 42.42871998170773 C58.992601197852935 44.593848919713935, 63.363828181928604 49.48693442714517, 65.83885734158946 54.580722191534726 C68.31388650125032 59.67450995592428, 69.99323985199067 67.29765866741216, 68.85524886526086 72.99144656804505 C67.71725787853106 78.68523446867793, 63.559728281800396 85.55393209913012, 59.010911421210636 88.74344959533207 C54.462094560620876 91.93296709153401, 47.36201048971727 92.59699281385224, 41.56234770172231 92.12855154525673 C35.76268491372735 91.66011027666121, 28.358403499164012 89.49998882816939, 24.21293469324087 85.93280198375902 C20.06746588731773 82.36561513934865, 17.322612498970244 76.36022201899188, 16.689534866183465 70.72543047879446 C16.056457233396685 65.09063893859705, 16.912860977396562 57.10405981564579, 20.414468896520198 52.124052742574584 C23.916076815643834 47.14404566950338, 34.24169158012784 42.55422812870795, 37.69918238092528 40.84538804036721 C41.15667318172272 39.136547952026476, 40.99666849980896 41.34808569002847, 41.159413701304835 41.87101221253016 M49.21224955118214 41.400802092485264 C54.65129064675368 42.28686547408934, 60.864224495754854 47.436936610066, 64.01043729091636 51.837578272773285 C67.15665008607786 56.23821993548057, 68.56492288267049 62.26730137382477, 68.08952632215116 67.80465206872897 C67.61412976163183 73.34200276363318, 64.52194006775208 81.00373641585095, 61.15805792780043 85.06168244219849 C57.79417578784878 89.11962846854603, 53.211948080338175 91.26790382772585, 47.90623348244126 92.1523282268142 C42.60051888454434 93.03675262590257, 34.10017225081136 93.22430613836157, 29.323770340418946 90.36822883672863 C24.54736843002653 87.5121515350957, 20.842060709101183 80.35831468557069, 19.24782202008677 75.01586441701662 C17.653583331072355 69.67341414846254, 17.702518942935452 63.33545655525598, 19.75833820633245 58.313527225404144 C21.814157469729448 53.29159789555231, 26.999547245040276 47.415732029244225, 31.582737600468754 44.884288437905596 C36.16592795589723 42.35284484656697, 44.41049850993411 43.40816896344759, 47.25748033890333 43.124865677372384 C50.10446216787255 42.84156239129718, 48.58113188541088 42.828739364462876, 48.66462857428408 43.184468721454365" stroke="#000" stroke-width="1" fill="none"/></g><g><path d="M43.8098891912755 31.458290692430186 C43.8098891912755 31.458290692430186, 43.8098891912755 31.458290692430186, 43.8098891912755 31.458290692430186 M43.8098891912755 31.458290692430186 C43.8098891912755 31.458290692430186, 43.8098891912755 31.458290692430186, 43.8098891912755 31.458290692430186 M43.45606128050593 36.605985106914105 C50.24386574068964 31.47585423048956, 55.78618610732684 25.73814767197192, 59.20572256935316 22.091105562038774 M43.69884411184312 38.72806683165546 C48.21555059360408 33.410558526951895, 52.883903448409754 28.538694106169658, 58.01708977185443 20.32582261592007 M42.13681740502833 44.33393478996899 C51.78011273914141 36.72872911710974, 56.62524094286479 27.635854262122493, 65.08412391445248 21.2858792777538 M42.43125520073604 43.786581874331006 C47.5877645668708 39.43813573431976, 54.23696948607633 32.19380930403887, 64.38247052049147 19.206859392417044 M42.89597507732871 51.00549654263831 C51.81830982870921 41.82212241407262, 57.01694799191044 33.57439670587144, 71.40661005093538 19.501089064557092 M43.65562268994308 51.28810167633828 C52.56207309222371 41.115091173630226, 61.44458334653587 29.5632828786758, 69.77971377155757 18.887760068543777 M44.75652819763714 52.59951301864273 C54.8564786266067 43.51525943100567, 67.61596883035511 30.660332853998444, 77.61567308025678 20.117885930563563 M45.399057067720285 53.75652789375903 C53.013649696330724 45.91184016327964, 61.052532044942375 36.43549759685151, 75.7256066975971 19.43065965339914 M49.38859806604748 55.11158033655628 C59.486679139899586 44.11049833319789, 72.40036724366612 29.068779203120894, 78.79643316793671 22.817017637522284 M48.04206209487466 56.33320431579589 C57.76068850050984 44.97401520745925, 67.3242108293144 33.963276040157695, 80.06016123386347 20.979916075652355 M50.471242027384704 58.450086875161006 C61.79511950981107 51.31505548857976, 67.15063421091465 39.88689278076556, 80.92091035617705 22.004990672013697 M50.53211208067 59.30385740721535 C58.003004999119334 51.97938089550906, 64.55357997994544 44.01929358959932, 83.02354018010588 24.193737494724775 M54.81979208277465 61.68666277848926 C65.27880133187452 53.59759425077083, 74.7466212736545 39.75668841870746, 83.47564564080515 26.42639411608142 M52.493900353649686 63.881988224061445 C61.20888826221215 54.20481352602181, 70.94575151116238 43.68979093722774, 84.28080269397937 27.568881261153912 M58.93048935387096 63.05438961043785 C62.61787368927725 58.297197078913726, 72.58345470145575 51.00139276180003, 86.84309708758988 28.038723455566714 M57.450658163217035 63.96866651278028 C65.38410293952128 56.921949206764104, 71.4504333994657 47.39489888584008, 86.73883609397292 29.97223114263893 M60.57129856641797 65.93308743025432 C70.74051505851682 55.15625415763879, 77.45006993836283 46.11065633512059, 88.01473559286711 33.7269361076894 M62.42352329732167 66.08698319601886 C68.71650952466554 56.40536974387644, 77.69264821309487 48.26305073344356, 90.00192917369421 33.2046050320727 M66.72515916758368 68.51743230976278 C70.27195046877858 61.48799045078905, 78.20546185327294 55.18496464831874, 91.82714406986483 37.62635200477268 M66.75380032300282 65.75803984207542 C75.00987052622085 55.244499754435836, 85.6127591184272 45.46562730684583, 91.83036869834974 37.10618861128091 M70.32296673271381 65.7471528866175 C76.663107757175 61.73959135939948, 85.31466581826916 52.62249817710925, 92.74026090714356 41.063324465294194 M71.61963240363956 66.23030363665922 C78.2371953645023 57.74568876639296, 86.97565038934644 49.05931392458717, 91.69581685854199 43.70871316539311 M81.16860299331046 63.12145203492352 C83.22667674833903 57.414605503138596, 89.91325022959039 52.769213644745136, 90.29502369495542 50.987149097688814 M78.70504033231747 63.77166814418019 C84.50405129334042 57.82680041641015, 88.08891595862062 52.39096474782599, 91.76518725132257 48.74460064187415" stroke="#43990e" stroke-width="0.5" fill="none"/><path d="M74.67996247923837 17.567377243557086 C79.51002904560296 18.78026274198049, 84.14278198432827 24.331639518484092, 87.15691348644494 28.95401129314798 C90.1710449885616 33.57638306781187, 93.16348430101743 39.96384512675806, 92.76475149193841 45.30160789154041 C92.36601868285939 50.639370656322754, 88.73323958495962 57.30659221971965, 84.76451663197082 60.980587881842055 C80.79579367898202 64.65458354396446, 74.33883478244452 66.9649532320966, 68.95241377400566 67.34558186427483 C63.5659927655668 67.72621049645306, 56.808036446613286 66.17085786253338, 52.44599058133764 63.26435967491144 C48.08394471606199 60.3578614872895, 44.23720740064026 55.18722133336494, 42.78013858235177 49.906592738543175 C41.32306976406328 44.62596414372141, 41.36214186143928 36.54649264510741, 43.70357767160668 31.580588105980844 C46.045013481774085 26.61468356685428, 51.22791122205931 21.94595495738487, 56.828753443356185 20.111165503783774 C62.42959566465306 18.276376050182677, 73.29321527952291 20.25143367556399, 77.3086309993879 20.571851384374252 C81.32404671925289 20.892269093184513, 80.83774802059462 21.877975204623933, 80.92124776254613 22.033671756645347 M55.70846864300903 18.583913649117676 C60.22188585226327 16.03398242092045, 69.30260661624598 16.023129754018438, 74.58083284404738 17.839511141917896 C79.85905907184878 19.655892529817354, 84.6870468304537 24.73303952910349, 87.3778260098174 29.482201976514418 C90.0686051891811 34.23136442392534, 90.99788681112864 40.901168465218355, 90.72550792022957 46.334485826383464 C90.45312902933051 51.76780318754857, 89.528169951329 58.67843654601397, 85.743552664423 62.08210614350506 C81.95893537751701 65.48577574099615, 73.44651168520082 66.2276652768866, 68.0178041987936 66.75650341132997 C62.58909671238638 67.28534154577335, 57.42717878639508 67.96807779705702, 53.17130774597971 65.25513495016529 C48.91543670556434 62.54219210327354, 43.95618023843743 56.14936569949411, 42.482577956301384 50.47884632997952 C41.008975674165335 44.808326960464925, 42.2463936682548 36.20702317023676, 44.32969405316341 31.232018733077737 C46.41299443807202 26.25701429591871, 53.1336527904605 22.584564628527954, 54.98238026575304 20.628819707025368 C56.83110774104557 18.673074785522783, 55.14390224509091 19.27002148548943, 55.42205890491861 19.49754920406222" stroke="#000" stroke-width="1" fill="none"/></g><g><path d="M82.00589635502811 16.961105396856716 C82.00589635502811 16.961105396856716, 82.00589635502811 16.961105396856716, 82.00589635502811 16.961105396856716 M82.00589635502811 16.961105396856716 C82.00589635502811 16.961105396856716, 82.00589635502811 16.961105396856716, 82.00589635502811 16.961105396856716 M75.0797720933283 29.59006099609934 C78.5156189771664 24.25488110511187, 86.0393834008972 18.879567540116497, 88.42257594336833 11.881132961428452 M74.30564468692586 30.04022632851043 C80.10980445684795 25.211869759005275, 85.67983522132448 20.985510396835355, 90.53110135943417 13.706703856641775 M78.4130393428578 34.252863216729786 C82.3028879412222 30.221991186108188, 87.63341703525246 22.588120397114036, 97.08581019900514 9.4616044114923 M76.54530211256619 34.145409483304164 C80.99075764071497 30.201668862746732, 86.7383348249003 24.182614553256848, 98.43586122692294 9.827056286793535 M78.31151640904899 40.210604448448095 C85.57242086233786 31.90113868554347, 94.30585475210249 19.151704935976106, 104.06059986663597 12.904545579137698 M78.84281604648083 40.668191850516415 C83.97963650518408 35.11878037250621, 88.82388093170547 28.676627551022236, 102.29735619666968 12.668522015121479 M77.80596253972239 43.12373786766273 C84.5015741159188 37.86630818152372, 88.76818770108532 33.0314227096005, 107.9516527456862 12.274967690132629 M79.80495466892246 44.211802140233985 C87.38692625187073 34.26131681178998, 97.14125348704702 25.009088998984243, 106.39251351045405 12.572464773237625 M82.5308669733984 47.91436023047926 C91.60854379549426 38.26378137270227, 102.42786859503684 26.02743535381627, 109.90857472563009 14.43750881752588 M80.9910659226459 47.83530872003979 C91.87644747610331 37.76538179012676, 99.84001438845932 26.610407642646805, 111.07710899959726 14.785386720633387 M85.32144481073252 52.203876528397885 C97.28738400460757 36.09982900008624, 108.48818992993561 23.798524559807372, 114.29786175975049 13.545207638145254 M84.46251037397333 51.22056783747242 C95.78439594998035 37.87681148584601, 108.5271043656217 22.73109341975843, 116.38245662619697 15.159881563049044 M85.79053583185429 54.08407181565943 C98.34434332244017 41.948921895903936, 106.77529616223845 29.346691964343684, 117.69541362201777 19.246357401945257 M87.27837187679103 53.382010306713546 C97.19878508583726 42.21229751390185, 105.44135904433874 31.790171690666334, 119.21084547628897 18.02063391866807 M89.85387745613762 54.22417164364572 C98.55151949555626 50.60691906221075, 104.4175047244663 43.54813890058642, 119.4451161719363 22.448510601117853 M89.6969656968433 56.601683219273035 C100.99978614680538 44.82259600825579, 111.55492828233899 32.79715844539258, 119.67402124519573 21.622848341551997 M91.56027002119359 59.98195338329532 C101.61118332992412 47.25047602226952, 112.04988647074606 38.09466732140999, 121.86453188102483 23.650019772001187 M93.13247893477742 58.309781640229495 C104.95849963344327 45.39928346879352, 115.71877896367644 34.27400295322498, 122.83932018608888 24.928625683272937 M97.8533259622837 57.74368076163567 C105.84707384926062 47.70871606350744, 117.66379396536747 36.57695764520557, 125.8436639347641 30.366815052916294 M98.34406406736989 59.12611120632147 C107.74016460937379 46.64280501583224, 118.41934030174195 35.906958763174, 125.32224723597467 28.644498253253982 M104.98847993749641 58.37954188107352 C109.45220532505314 51.50618420440485, 113.2349753574699 46.54846897832791, 122.58825189990135 37.459876889724875 M105.26453820899093 56.158022165947344 C111.44662241480822 49.502475120580755, 117.83683305986004 42.437924456700365, 124.35637228814674 36.2831160207134 M109.4222329164207 57.94687232533416 C115.36301442785052 53.43221941339394, 119.99006256640413 46.27344067925743, 123.82625247328053 42.297685930738034 M110.44654692197545 56.11114610850748 C113.83270857640156 52.36792255735106, 117.03305414342785 49.048727901470805, 122.88427201164771 43.32371225581336" stroke="#133445" stroke-width="0.5" fill="none"/><path d="M99.3819784145496 9.705734538551425 C104.35713479793816 9.119002068545708, 111.0799451735484 11.005245759749556, 115.27812685069442 14.137119105805631 C119.47630852784044 17.268992451861706, 123.47292797781998 23.442584420023838, 124.57106847742577 28.496974614887872 C125.66920897703156 33.55136480975191, 124.29033454116811 39.949608235576235, 121.8669698483292 44.46346027498984 C119.4436051554903 48.97731231440345, 114.94524744202914 53.31441188266808, 110.03088032039231 55.580086851369515 C105.11651319875548 57.84576182007095, 97.49378076209385 59.61452076693686, 92.3807671185082 58.05751008719842 C87.26775347492256 56.500499407459984, 82.29815483871036 50.86052533547623, 79.35279845887841 46.23802277293888 C76.40744207904646 41.615520210401534, 74.26881492703944 35.19925563779201, 74.70862883951648 30.322494711974322 C75.14844275199351 25.44573378615664, 77.19927241174241 20.48020553480621, 81.99168193374061 16.977457218032793 C86.7840914557388 13.474708901259376, 99.20337294301314 10.221989359451259, 103.46308597150568 9.306004811333825 C107.72279899999822 8.39002026321639, 107.73390546233674 10.975995498056474, 107.54996010469586 11.481549929328192 M106.97228187151396 12.295188850627184 C112.21016380570404 13.789432944112981, 119.76414117242037 17.446926351416817, 122.56163448957234 21.454302424315358 C125.35912780672432 25.4616784972139, 124.84755164542821 31.324700913075016, 123.75724177442581 36.339445288018425 C122.6669319034234 41.354189662961836, 119.95040852643973 47.80112886846564, 116.01977526355792 51.542768673975814 C112.0891420006761 55.28440847948599, 105.5724026505254 58.6743976331379, 100.1734421971349 58.789284121079476 C94.7744817437444 58.90417060902105, 87.80451482110486 55.70751525325333, 83.62601254321493 52.23208760162525 C79.447510265325 48.75665994999718, 75.93289883745109 42.92828656167111, 75.10242852979528 37.936718211311046 C74.27195822213946 32.945149860950984, 75.89953979294607 26.584318169537852, 78.64319069728006 22.282677499464878 C81.38684160161405 17.981036829391904, 86.59630238519037 13.834717708045089, 91.5643339557992 12.126874190873213 C96.53236552640803 10.419030673701338, 105.5218369340752 12.129068800324843, 108.45138012093305 12.035616396433621 C111.38092330779091 11.9421639925424, 109.2123869818007 11.187179814355801, 109.14159307694636 11.566159767525885" stroke="#000" stroke-width="1" fill="none"/></g><g><path d="M116.48256621862446 24.405996386419602 C116.48256621862446 24.405996386419602, 116.48256621862446 24.405996386419602, 116.48256621862446 24.405996386419602 M116.48256621862446 24.405996386419602 C116.48256621862446 24.405996386419602, 116.48256621862446 24.405996386419602, 116.48256621862446 24.405996386419602 M111.50305656402868 34.784078130430466 C115.02354386937255 33.23827370534516, 120.31745589905478 28.843847216617824, 123.16004770101726 21.428386896578424 M111.208624544847 36.614379799590274 C116.40609655067591 32.29954323284474, 119.4162188335672 27.323544164825844, 124.93820101854257 21.183211352335768 M110.06141040465646 45.10400866251804 C119.31944777060804 34.03372731405384, 122.97844029094622 26.572392027470954, 130.3835515209991 17.347578873306457 M110.99673919953744 43.796481246899525 C117.57583344809073 36.41018272689698, 122.92237367633398 29.737533240746338, 131.06302383099958 19.110323396216103 M110.13130080716401 47.72343302939277 C116.37398637873082 40.39913699154937, 120.31824161110231 37.90705178784209, 137.2120939572815 19.94905443186285 M112.03052362962757 48.53808978220873 C116.62074318634087 41.437639435603025, 121.60316727063811 35.68873918785016, 135.58784020471575 19.986730395790072 M113.29904253320996 52.40185286110976 C120.04533149023021 44.811423698086415, 127.4129456946951 36.56012161530205, 141.23346062828472 20.56573506043187 M113.5561997695696 52.60205440462275 C120.99574796670687 44.40539007221518, 129.40231914241954 34.3748678451972, 139.77100808136592 21.658102299101326 M113.1210207487988 58.563901872209314 C122.23126523041725 49.69533897799916, 128.59752638833842 44.542561552499386, 146.19169744389004 20.689098968089304 M114.48432844029846 56.25656312993814 C123.38221513980244 45.720304940329385, 132.19969169380158 35.94200811880955, 143.7974733111206 23.202916277562863 M119.07497312325137 59.065238573204624 C130.0777266092226 44.900802542754164, 140.0716648283702 33.757197317946826, 148.17409009230016 24.37695315480668 M118.01868772594086 59.019078751702914 C125.42016762190659 50.46617151847171, 133.24902017726643 40.77585107725339, 149.51182343457845 24.13831918425509 M119.63012021443431 61.747972845599435 C130.10596843338823 53.29858075759096, 139.5045122759016 43.22120445611155, 151.63426996338697 25.87464691514335 M121.37232805564173 61.1073518576717 C130.01756411531773 51.46558305533972, 139.96897802338356 39.38846200669271, 150.44463087492375 28.617729880076784 M122.26644498969848 63.363699575321256 C133.5818229658838 50.52138214025771, 145.57790962515554 38.45786994746466, 154.41869609617132 30.439779551555716 M125.19743637140947 63.9359717192859 C130.24788187827312 55.26459375981743, 137.56417478028345 47.074084307533816, 152.47873372478062 31.65908950578238 M127.44134896170176 64.8090646912131 C135.26303899138995 56.21289949170313, 143.80005534080135 44.95882317937384, 155.936714786374 34.13896989492922 M127.40038254075978 66.29887871822554 C135.71652301363528 56.48814335319595, 144.59616956781642 46.93252775500996, 155.68083876852629 34.4535706212081 M134.56819327107615 65.49472268800623 C142.63177765699172 57.05634921493427, 150.4976104328702 44.15165105263134, 158.21946431424584 37.4103720021477 M133.2738876990574 64.78162270077344 C139.88970007293875 57.445184974346525, 146.21356966167787 49.93390738413459, 157.1221854312417 38.53449045437466 M136.72888986014794 66.63872603077034 C143.6426188152295 61.476709236311656, 149.68085009645648 55.97536159559108, 157.7639992464551 45.685094213110105 M138.1900631578012 66.34300553261048 C145.00994685899263 59.06048596296932, 151.647966885329 51.10303462636888, 156.7148377882021 46.24941856643746 M146.3770230933622 61.58859446783377 C148.77266338601882 58.491441609713426, 153.002290176529 57.18406620243758, 156.4237492974675 52.62004973345246 M147.06869035615387 61.733853558807176 C148.83781646881627 60.120414756745184, 151.44845829459837 57.23343565268378, 155.4026745912475 52.51845708081555" stroke="#1438c2" stroke-width="0.5" fill="none"/><path d="M132.86838523635868 18.915784462399767 C137.81591599933506 18.49000462385547, 144.5869656254829 20.344585032518637, 148.4496203433194 23.333406312488318 C152.3122750611559 26.322227592458, 155.06259371461204 31.597710832238825, 156.04431354337765 36.84871214221784 C157.02603337214327 42.09971345219686, 156.73552003978162 50.03721694162694, 154.33993931591306 54.83941417236243 C151.9443585920445 59.641611403097926, 146.592480092209 63.94320760196308, 141.67082920016634 65.66189552663079 C136.74917830812367 67.38058345129849, 129.55307884210902 66.82703677771266, 124.81003396365706 65.15154172036864 C120.06698908520512 63.47604666302462, 115.70316228622178 59.75499321347858, 113.21255992945467 55.608925182566644 C110.72195757268756 51.46285715165471, 109.36759544540257 45.422501484644755, 109.86641982305443 40.27513353489704 C110.36524420070629 35.12776558514932, 112.46200629355758 28.42349358741574, 116.20550619536579 24.724717484080315 C119.94900609717399 21.02594138074489, 129.29268779678446 18.945150433851374, 132.32741923390367 18.082476914884474 C135.36215067102287 17.219803395917573, 134.40535359762606 19.108295120909382, 134.413894818081 19.54867637027892 M133.23715947970882 18.024349390996953 C138.00803595908138 17.63673983458612, 144.57875357654476 20.433666993940484, 148.7132624732793 24.248583419311096 C152.84777137001382 28.063499844681708, 157.06856138264624 35.67144249981212, 158.04421286011603 40.91384794322063 C159.01986433758583 46.15625338662914, 157.80787740293883 51.444783432936745, 154.5671713380981 55.70301607976214 C151.32646527325736 59.96124872658754, 143.56891628033605 65.08609016079079, 138.59997647107164 66.46324382417302 C133.63103666180723 67.84039748755525, 129.22489332620438 66.01184109322776, 124.75353248251166 63.96593806005556 C120.28217163881894 61.92003502688336, 114.34945652799078 58.8940685222051, 111.77181140891528 54.18782562513985 C109.19416628983979 49.4815827280746, 108.27913330947084 41.04143327381151, 109.28766176805867 35.72848067766405 C110.2961902266465 30.41552808151659, 113.42529878337035 25.34945544153261, 117.8229821604423 22.310110048255076 C122.22066553751424 19.270764654977544, 132.76030145268453 18.129596875464287, 135.6737620304903 17.49240831799885 C138.5872226082961 16.855219760533416, 135.33577111793298 17.706074278367574, 135.30374562727704 18.48697870346246" stroke="#000" stroke-width="1" fill="none"/></g><g><path d="M134.74617835218368 58.8324941056255 C134.74617835218368 58.8324941056255, 134.74617835218368 58.8324941056255, 134.74617835218368 58.8324941056255 M134.74617835218368 58.8324941056255 C134.74617835218368 58.8324941056255, 134.74617835218368 58.8324941056255, 134.74617835218368 58.8324941056255 M136.35357701561938 64.29882150813197 C139.74829585536298 62.12528505544911, 144.38278969870638 57.10477089414681, 147.54091442043676 50.54708037324684 M134.58156888805217 65.81655707205798 C138.14013778646398 61.061117276706874, 141.6727388862941 56.77639687354129, 147.45769934129672 49.741521487307494 M132.22858707420866 71.11504990550534 C141.24467446624692 65.70892000448771, 145.92548148695732 57.36002815571642, 154.54705846935377 49.10713072400697 M133.4785203683044 71.47049349471696 C140.526113518809 62.86884165196267, 148.78168550456792 55.66043251061924, 155.84745404054235 47.45819082669214 M137.19972797601486 78.09429461772542 C142.84288340584854 69.39437167935625, 150.1971692915228 60.9221109215876, 164.14928704715086 45.12813113701789 M135.65938368056294 75.85806404000029 C145.16726793140083 65.27722319439098, 153.96656818920553 55.28765471767749, 164.38477640570508 43.98161243073144 M135.7946951254973 81.78754377863474 C146.08861132202603 71.81594680894734, 154.25728543067004 63.07780681759574, 165.1715697413527 44.02537717370957 M136.72872920348118 80.33146069955819 C146.73648098760327 69.52272559310649, 154.29798071365568 60.54553429135851, 167.25041941447986 45.02425721663731 M139.12086364703296 82.79182669557676 C148.5247813239863 75.36803564845941, 154.70917879333655 65.50947867782071, 171.94525614288918 49.122143741703916 M139.82584483931424 82.98992921477907 C148.27337078240816 74.2344395790565, 156.8115730430629 64.45746263594454, 170.7445082759947 46.83341972115407 M141.21297816913747 84.77840030445944 C148.44366335123743 79.91884670208461, 155.5968959730556 71.3604078450019, 175.0660216885434 50.19249251287985 M142.45526421963237 85.85349279512381 C150.25205801018294 76.2852131377047, 157.5693094570135 67.09062600679599, 174.10033480737553 49.73028900785618 M143.56383354479425 87.30886189998797 C156.8805979049449 77.73917987916693, 168.4019741706738 61.762782205634764, 177.0930822763673 50.523673962245496 M145.62959601954353 88.38945002026622 C152.32146342753606 81.85811221923157, 159.2800010222018 72.57659182196515, 178.24842197455024 51.41228527377763 M149.0245955782814 88.8254530975257 C158.98354522706632 79.53694170519535, 166.46217047156017 71.23775144812534, 178.93922967424615 57.01227911835741 M150.5600981936696 89.3925808783452 C161.16743498699748 76.83606778289915, 172.8404504380076 64.6804155355462, 179.7707106357742 55.71766603580647 M154.3958535153207 89.90876143667639 C161.11822239154375 81.8973188511269, 170.20302706732107 76.68286417663177, 179.22943737225103 60.375318408058014 M154.2271376613547 90.62330736126476 C161.46985787402164 82.7760721204455, 169.48382504911993 72.71691924134963, 180.76666637892455 61.76034248881038 M157.77650182017882 91.16219860262746 C164.79332527273593 85.37269384655397, 168.02144411825097 79.00319539478949, 183.02376028967916 67.02469040330449 M158.53012723017997 92.28340176021486 C167.20152390950435 82.26313812067296, 174.25500522356586 74.58166230792409, 181.9795350036482 65.91760031835054 M163.76964012001022 95.2515332116308 C169.3759230911683 83.99859783891215, 179.61797106012844 76.47131599423645, 184.21569372601218 69.87226889504232 M163.25068350256385 93.32927256533002 C168.9217616844027 86.92812251789613, 175.2725017868718 79.86441068294053, 184.31337596137044 69.26400039778147" stroke="#d48cc1" stroke-width="0.5" fill="none"/><path d="M145.27167943418004 46.94197887288302 C149.53686671204116 44.292799021310486, 157.10742471432016 41.888336854292824, 162.42473364126118 42.697929771745805 C167.7420425682022 43.50752268919879, 173.91641731397607 47.4716284872374, 177.1755329958262 51.79953637760092 C180.4346486776763 56.12744426796444, 182.02681143700624 63.54266310761507, 181.9794277323619 68.66537711392691 C181.93204402771755 73.78809112023875, 180.53082668294627 78.80656629865551, 176.8912307679602 82.53582041547197 C173.25163485297412 86.26507453228844, 165.69118586586973 90.09398551486176, 160.14185224244542 91.04090181482569 C154.59251861902112 91.98781811478962, 147.90536837343927 90.8516475890068, 143.59522902741438 88.21731821525559 C139.28508968138948 85.58298884150437, 135.78069707299005 80.10382210973066, 134.2810161662961 75.23492557231837 C132.78133525960214 70.36602903490609, 131.60465806613135 64.40688161664602, 134.59714358725074 59.00393899078191 C137.58962910837013 53.600996364917805, 148.46461732160117 45.488763381608685, 152.2359292930124 42.81726981713373 C156.0072412644236 40.14577625265877, 157.09921717618326 42.478319366424735, 157.22501541571805 42.97497760393215 M147.0837225858949 45.07901793006553 C151.67156185764108 43.43618004712956, 158.91228844909867 43.92342594618737, 164.12139008423372 45.59445626946107 C169.33049171936878 47.26548659273477, 175.5124728361377 50.80858481519518, 178.3383323967052 55.10519986970773 C181.1641919572727 59.40181492422028, 181.9987675531073 66.43251915630277, 181.07654744763863 71.37414659653636 C180.15432734216995 76.31577403676995, 176.53805333987555 81.4417362953089, 172.80501176389302 84.75496451110925 C169.0719701879105 88.0681927269096, 163.75362379201195 90.89309807399094, 158.6782979917434 91.25351589133848 C153.60297219147483 91.61393370868602, 146.52795734215766 90.13321263787054, 142.35305696228173 86.9174714151945 C138.1781565824058 83.70173019251845, 134.91399009372972 77.2824701099418, 133.6288957124878 71.95906855528226 C132.34380133124588 66.63566700062272, 132.37269974502934 59.416037138218776, 134.64249067483024 54.97706208723724 C136.91228160463115 50.53808703625571, 144.76178489769418 46.68757433262003, 147.24764129129318 45.325218249393046 C149.73349768489217 43.96286216616606, 149.36528879682072 46.49758473089287, 149.55762903642426 46.80292558787534" stroke="#000" stroke-width="1" fill="none"/></g></svg>